<?xml version="1.0" encoding="iso-8859-1"?>
<!-- Generator: Adobe Illustrator 18.0.0, SVG Export Plug-In . SVG Version: 6.00 Build 0)  -->
<!DOCTYPE svg PUBLIC "-//W3C//DTD SVG 1.1//EN" "http://www.w3.org/Graphics/SVG/1.1/DTD/svg11.dtd">
<svg version="1.1" id="Capa_1" xmlns="http://www.w3.org/2000/svg" xmlns:xlink="http://www.w3.org/1999/xlink" x="0px" y="0px"
	 viewBox="0 0 467.229 467.229" style="enable-background:new 0 0 467.229 467.229;" xml:space="preserve">
<g>
	<path d="M345.118,302.394c2.498,6.05,11.342,6.054,13.845,0.003c1.249-3.02,0.361-6.634-2.195-8.69
		c-2.341-1.883-5.649-2.192-8.296-0.769C345.152,294.723,343.645,298.906,345.118,302.394
		C345.308,302.854,344.928,301.944,345.118,302.394z"/>
	<path d="M378.052,307.713c-3.251-2.566-7.968-2.012-10.534,1.239c-2.566,3.251-2.012,7.967,1.239,10.534
		c17.897,14.129,27.357,30.421,27.357,47.113c0,21.241-15.179,41.584-42.832,57.551l-106.239-59.869
		c5.243-7.873,8.061-17.119,8.061-26.802v-55.732c25.963,1.846,50.814,7.04,72.296,15.167c0.874,0.331,1.771,0.487,2.652,0.487
		c3.029,0,5.881-1.848,7.016-4.848c1.466-3.874-0.487-8.203-4.361-9.668c-23.121-8.747-49.816-14.293-77.604-16.175V165.294
		c36.835-8.813,64.309-41.993,64.309-81.49C319.414,37.594,281.82,0,235.61,0s-83.804,37.594-83.804,83.804
		c0,39.497,27.474,72.677,64.308,81.49v101.168c-41.736,2.281-80.466,12.706-109.721,29.63
		C73.971,314.85,56.115,339.89,56.115,366.6c0,27.743,19.067,53.467,53.688,72.433c33.193,18.183,77.164,28.197,123.812,28.197
		c46.648,0,90.619-10.014,123.812-28.197c34.621-18.966,53.688-44.689,53.688-72.433
		C411.115,345.152,399.682,324.79,378.052,307.713z M166.807,83.804C166.807,45.865,197.672,15,235.61,15
		s68.804,30.865,68.804,68.804s-30.865,68.804-68.804,68.804S166.807,121.742,166.807,83.804z M235.61,167.607
		c1.508,0,3.006-0.045,4.495-0.124v169.996c0,5.996-1.563,11.749-4.494,16.792c-2.934-5.042-4.497-10.794-4.497-16.792V167.484
		C232.604,167.563,234.102,167.607,235.61,167.607z M117.009,425.877c-29.596-16.213-45.895-37.264-45.895-59.277
		c0-21.131,15.197-41.56,42.791-57.523c27.062-15.656,63.113-25.358,102.209-27.596v55.999c0,12.958,5.043,25.132,14.2,34.276
		c0.493,0.493,1.618,1.227,1.618,1.227l105.252,59.313c-29.154,12.913-65.324,19.933-103.57,19.933
		C189.442,452.229,148.031,442.871,117.009,425.877z"/>
</g>
<g>
</g>
<g>
</g>
<g>
</g>
<g>
</g>
<g>
</g>
<g>
</g>
<g>
</g>
<g>
</g>
<g>
</g>
<g>
</g>
<g>
</g>
<g>
</g>
<g>
</g>
<g>
</g>
<g>
</g>
</svg>
